#!OML:ASF E:\inclinewalkrobotboard\Project 1\Capture day 1\Session 1\subject1.ASF
:FULLY-SPECIFIED
:DEGREES
64
root 6.93836 16.5905 34.0466 -171.058 1.47905 179.734
lowerback -10.1501 1.42035 -6.11023
upperback 0.29522 2.59161 1.14239
thorax 5.69259 1.09547 5.03234
lowerneck -9.84269 1.009 -2.4905
upperneck 21.4753 0.0478852 3.92649
head 8.26135 -0.166646 1.68109
rclavicle 1.03492e-014 7.85199e-015
rhumerus -39.7885 -25.2043 -75.3569
rradius 27.6919
rwrist 14.1317
rhand -15.3399 -35.8782
rfingers 7.12502
rthumb 10.8369 -65.5786
lclavicle 1.03492e-014 7.85199e-015
lhumerus -26.455 5.73647 89.7235
lradius 17.6472
lwrist -28.8883
lhand -26.0142 -21.8668
lfingers 7.12502
lthumb 0.532009 8.11227
rfemur -5.76773 2.45293 19.7341
rtibia 10.2529
rfoot -14.7463 -4.37262
rtoes -26.1501
lfemur -5.98123 -7.77897 -20.1299
ltibia 8.99525
lfoot -14.2746 -2.69779
ltoes -31.6989
65
root 6.93748 16.589 34.0451 -171.059 1.51398 179.724
lowerback -10.1286 1.45976 -6.07347
upperback 0.280888 2.63929 1.12495
thorax 5.66139 1.12205 4.99809
lowerneck -9.74931 1.01909 -2.24708
upperneck 21.22 0.114607 3.63219
head 8.1583 -0.134624 1.54643
rclavicle 5.3734e-015 -1.12313e-014
rhumerus -39.9801 -25.4557 -75.1225
rradius 27.5473
rwrist 14.3278
rhand -15.5708 -35.9126
rfingers 7.12502
rthumb 10.6142 -65.6246
lclavicle 5.3734e-015 -1.12313e-014
lhumerus -26.5214 5.73012 89.6954
lradius 17.6431
lwrist -28.8622
lhand -25.9021 -21.6396
lfingers 7.12502
lthumb 0.640336 8.33921
rfemur -5.78082 2.44545 19.7124
rtibia 10.2545
rfoot -14.7081 -4.36256
rtoes -26.467
lfemur -5.96341 -7.78414 -20.1512
ltibia 8.95922
lfoot -14.2778 -2.7021
ltoes -31.4511
66
root 6.93705 16.5888 34.0426 -171.101 1.50871 179.721
lowerback -10.087 1.48081 -6.04795
upperback 0.295596 2.6612 1.12448
thorax 5.6517 1.13329 4.98455
lowerneck -9.87405 1.04696 -2.36728
upperneck 21.2304 0.166086 3.72822
head 8.18208 -0.105929 1.60507
rclavicle 1.9866e-014 1.12313e-014
rhumerus -40.1449 -25.6937 -74.8407
rradius 27.3257
rwrist 14.4868
rhand -15.7704 -35.474
rfingers 7.12502
rthumb 10.4217 -65.1957
lclavicle 1.9866e-014 1.12313e-014
lhumerus -26.522 6.11668 89.5147
lradius 17.4553
lwrist -29.157
lhand -25.888 -21.8572
lfingers 7.12502
lthumb 0.65393 8.12159
rfemur -5.70753 2.44177 19.7087
rtibia 10.1904
rfoot -14.655 -4.37698
rtoes -26.8051
lfemur -5.88461 -7.84563 -20.1744
ltibia 8.92725
lfoot -14.3216 -2.66871
ltoes -31.2977
67
root 6.93722 16.5894 34.0401 -171.13 1.49085 179.732
lowerback -10.0725 1.48703 -6.01886
upperback 0.314451 2.66476 1.12555
thorax 5.6642 1.13459 4.96956
lowerneck -10.0542 1.06488 -2.4295
upperneck 21.1959 0.207588 3.80716
head 8.20161 -0.0751681 1.64763
rclavicle -2.44319e-014 -1.2921e-014
rhumerus -40.2691 -25.8407 -74.6031
rradius 27.1342
rwrist 14.4653
rhand -15.4578 -35.5072
rfingers 7.12502
rthumb 10.7231 -65.2136
lclavicle -2.44319e-014 -1.2921e-014
lhumerus -26.5546 6.62138 89.2379
lradius 17.2551
lwrist -29.5124
lhand -25.8562 -22.0703
lfingers 7.12502
lthumb 0.684586 7.90833
rfemur -5.64826 2.47145 19.7328
rtibia 10.1605
rfoot -14.6306 -4.39902
rtoes -26.7108
lfemur -5.85293 -7.86926 -20.1678
ltibia 8.95655
lfoot -14.3404 -2.65934
ltoes -31.3774
68
root 6.93693 16.5883 34.0374 -171.144 1.51006 179.641
lowerback -10.0766 1.46962 -6.10819
upperback 0.333667 2.65271 1.12007
thorax 5.68501 1.12453 5.01345
lowerneck -10.1774 1.11226 -2.50608
upperneck 21.1417 0.309824 3.80646
head 8.20206 -0.0252268 1.67148
rclavicle 1.57785e-015 7.65321e-015
rhumerus -40.3448 -25.9355 -74.3456
rradius 26.8557
rwrist 14.4694
rhand -14.5649 -35.7157
rfingers 7.12502
rthumb 11.5844 -65.3756
lclavicle 1.57785e-015 7.65321e-015
lhumerus -26.6345 7.12046 88.9745
lradius 17.0977
lwrist -29.7228
lhand -25.7988 -22.0213
lfingers 7.12502
lthumb 0.740107 7.9572
rfemur -5.62003 2.45893 19.6198
rtibia 10.1577
rfoot -14.6178 -4.36324
rtoes -26.4938
lfemur -5.84616 -7.88934 -20.2948
ltibia 8.98729
lfoot -14.3559 -2.649
ltoes -31.3897
69
root 6.93761 16.5879 34.0358 -171.166 1.52871 179.585
lowerback -10.0444 1.44753 -6.1821
upperback 0.344527 2.62887 1.13449
thorax 5.67772 1.11019 5.06616
lowerneck -10.1083 1.19878 -2.6399
upperneck 20.8417 0.470313 3.91506
head 8.08193 0.0622462 1.74363
rclavicle 2.29596e-014 3.27995e-015
rhumerus -40.4614 -25.9903 -74.0702
rradius 26.5572
rwrist 14.523
rhand -13.3871 -36.7691
rfingers 7.12502
rthumb 12.72 -66.3616
lclavicle 2.29596e-014 3.27995e-015
lhumerus -26.764 7.63466 88.6921
lradius 16.925
lwrist -29.933
lhand -25.844 -21.8993
lfingers 7.12502
lthumb 0.696448 8.07929
rfemur -5.58874 2.42618 19.5516
rtibia 10.1476
rfoot -14.6387 -4.33468
rtoes -26.7611
lfemur -5.8089 -7.90852 -20.3757
ltibia 8.96275
lfoot -14.3651 -2.62968
ltoes -31.3469
70
root 6.9395 16.5889 34.0366 -171.169 1.52459 179.661
lowerback -9.98961 1.45285 -6.11011
upperback 0.329882 2.62252 1.15195
thorax 5.63416 1.11113 5.04002
lowerneck -9.91571 1.1405 -2.67448
upperneck 20.6135 0.41464 3.89115
head 7.97282 0.0338885 1.73266
rclavicle -1.47846e-015 -5.1684e-015
rhumerus -40.7264 -26.1648 -73.7373
rradius 26.4061
rwrist 14.7233
rhand -13.1799 -37.7723
rfingers 7.12502
rthumb 12.9198 -67.3523
lclavicle -1.47846e-015 -5.1684e-015
lhumerus -26.928 8.14886 88.3112
lradius 16.726
lwrist -30.2299
lhand -25.7685 -21.8036
lfingers 7.12502
lthumb 0.769355 8.17474
rfemur -5.61303 2.45237 19.6596
rtibia 10.1851
rfoot -14.6697 -4.36385
rtoes -27.1849
lfemur -5.84094 -7.91395 -20.2694
ltibia 9.02532
lfoot -14.4008 -2.63285
ltoes -31.4527
